<?xml version="1.0" encoding="UTF-8"?>
<svg id="white-rgb" xmlns="http://www.w3.org/2000/svg" xmlns:xlink="http://www.w3.org/1999/xlink" viewBox="0 0 396.8504 81.0311">
  <a href="74.5133333333333">
    <path id="fullLogo" d="M71.3676,32.7525l3.3201-3.0539-3.0539,3.3201c-4.1071,4.4651-4.1071,11.3326,0,15.7977l3.0539,3.3201-3.3201-3.0539c-4.4651-4.1071-11.3326-4.1071-15.7977,0l-3.3201,3.0539,3.0539-3.3201c4.1071-4.4651,4.1071-11.3326,0-15.7977l-3.0539-3.3201,3.3201,3.0539c4.4651,4.1071,11.3326,4.1071,15.7977,0Z" style="fill: #fff;"/>
  </a>
  <a href="74.5133333333333">
    <path id="fullLogo-2" data-name="fullLogo" d="M88.8006,58.7624l2.9223.122-2.9223.122c-3.9301.1641-7.0786,3.3127-7.2428,7.2428l-.122,2.9223-.122-2.9223c-.1641-3.9301-3.3127-7.0786-7.2428-7.2428l-2.9223-.122,2.9223-.122c3.9301-.1641,7.0786-3.3127,7.2428-7.2428l.122-2.9223.122,2.9223c.1641,3.9301,3.3127,7.0786,7.2428,7.2428Z" style="fill: #fff;"/>
  </a>
  <a href="74.5133333333333">
    <path id="fullLogo-3" data-name="fullLogo" d="M97.2191,74.5481l1.3738,1.4935-1.4935-1.3738c-2.0086-1.8475-5.0979-1.8475-7.1064,0l-1.4935,1.3738,1.3738-1.4935c1.8475-2.0086,1.8475-5.0979,0-7.1064l-1.3738-1.4935,1.4935,1.3738c2.0086,1.8475,5.0979,1.8475,7.1064,0l1.4935-1.3738-1.3738,1.4935c-1.8475,2.0086-1.8475,5.0979,0,7.1064Z" style="fill: #fff;"/>
  </a>
  <a href="74.5133333333333">
    <path id="fullLogo-4" data-name="fullLogo" d="M110.7236,44.4707l1.3738,1.4935-1.4935-1.3738c-2.0086-1.8475-5.0979-1.8475-7.1064,0l-1.4935,1.3738,1.3738-1.4935c1.8475-2.0086,1.8475-5.0979,0-7.1064l-1.3738-1.4935,1.4935,1.3738c2.0086,1.8475,5.0979,1.8475,7.1064,0l1.4935-1.3738-1.3738,1.4935c-1.8475,2.0086-1.8475,5.0979,0,7.1064Z" style="fill: #fff;"/>
  </a>
  <a href="74.5133333333333">
    <path id="fullLogo-5" data-name="fullLogo" d="M96.7863,14.8261l1.3738,1.4935-1.4935-1.3738c-2.0086-1.8475-5.0979-1.8475-7.1064,0l-1.4935,1.3738,1.3738-1.4935c1.8475-2.0086,1.8475-5.0979,0-7.1064l-1.3738-1.4935,1.4935,1.3738c2.0086,1.8475,5.0979,1.8475,7.1064,0l1.4935-1.3738-1.3738,1.4935c-1.8475,2.0086-1.8475,5.0979,0,7.1064Z" style="fill: #fff;"/>
  </a>
  <a href="74.5133333333333">
    <path id="fullLogo-6" data-name="fullLogo" d="M96.4875,40.7955l2.9223.122-2.9223.122c-3.9301.1641-7.0786,3.3127-7.2428,7.2428l-.122,2.9223-.122-2.9223c-.1641-3.9301-3.3127-7.0786-7.2428-7.2428l-2.9223-.122,2.9223-.122c3.9301-.1641,7.0786-3.3127,7.2428-7.2428l.122-2.9223.122,2.9223c.1641,3.9301,3.3127,7.0786,7.2428,7.2428Z" style="fill: #fff;"/>
  </a>
  <a href="74.5133333333333">
    <path id="fullLogo-7" data-name="fullLogo" d="M88.8005,22.8356l2.9223.122-2.9223.122c-3.9301.1641-7.0786,3.3127-7.2428,7.2428l-.122,2.9223-.122-2.9223c-.1641-3.9301-3.3127-7.0786-7.2428-7.2428l-2.9223-.122,2.9223-.122c3.9301-.1641,7.0786-3.3127,7.2428-7.2428l.122-2.9223.122,2.9223c.1641,3.9301,3.3127,7.0786,7.2428,7.2428Z" style="fill: #fff;"/>
  </a>
  <a href="74.5133333333333">
    <path id="fullLogo-8" data-name="fullLogo" d="M21.722,59.309c-10.3794-10.3794-10.3793-27.2077,0-37.587,10.3794-10.3794,27.2076-10.3794,37.587,0l9.8553-9.8553C53.3421-3.9556,27.689-3.9556,11.8667,11.8667c-15.8223,15.8223-15.8223,41.4754,0,57.2976,15.8223,15.8223,41.4754,15.8223,57.2977,0l-9.8553-9.8553c-10.3794,10.3794-27.2077,10.3794-37.5871,0Z" style="fill: #fff;"/>
  </a>
  <path id="fullLogo-9" data-name="fullLogo" d="M160.3782,30.1899l-4.825,4.5986c-3.2792-3.4696-6.97-5.203-11.0722-5.203-3.4618,0-6.3758,1.1831-8.7472,3.5493-2.3713,2.3688-3.5544,5.2853-3.5544,8.7523,0,2.4151.5247,4.5601,1.574,6.435,1.0494,1.8724,2.5334,3.3435,4.4546,4.4135,1.9187,1.0674,4.0508,1.6023,6.3964,1.6023,2.001,0,3.8296-.3755,5.4885-1.1239,1.6563-.7459,3.4773-2.1064,5.4602-4.0791l4.6758,4.879c-2.6748,2.6105-5.2056,4.4237-7.5847,5.4319-2.3816,1.0108-5.0976,1.5149-8.1531,1.5149-5.63,0-10.2415-1.7849-13.8268-5.3548-3.5879-3.5724-5.3831-8.1479-5.3831-13.7316,0-3.611.8179-6.8208,2.4511-9.6294,1.6332-2.806,3.9737-5.0642,7.0188-6.7719s6.327-2.5617,9.8403-2.5617c2.9886,0,5.864.6327,8.6314,1.893,2.7674,1.2628,5.1516,3.058,7.1551,5.3856Z" style="fill: #fff;"/>
  <path id="fullLogo-10" data-name="fullLogo" d="M173.4952,23.8243h19.7757v6.7462h-12.9292v6.5507h12.9292v6.6253h-12.9292v9.5316h12.9292v6.7719h-19.7757V23.8243Z" style="fill: #fff;"/>
  <path id="fullLogo-11" data-name="fullLogo" d="M210.8012,23.8243h6.615l15.5011,23.8393v-23.8393h6.8954v36.2258h-6.633l-15.4831-23.7648v23.7648h-6.8954V23.8243Z" style="fill: #fff;"/>
  <path id="fullLogo-12" data-name="fullLogo" d="M254.4805,23.8243h20.0226v6.7951h-6.5996v29.4307h-6.9957v-29.4307h-6.4273v-6.7951Z" style="fill: #fff;"/>
  <path id="fullLogo-13" data-name="fullLogo" d="M289.2223,23.8243h19.7757v6.7462h-12.9292v6.5507h12.9292v6.6253h-12.9292v9.5316h12.9292v6.7719h-19.7757V23.8243Z" style="fill: #fff;"/>
  <path id="fullLogo-14" data-name="fullLogo" d="M326.5026,23.8243h6.8954v29.6494h10.0486v6.5765h-16.944V23.8243Z" style="fill: #fff;"/>
  <path id="fullLogo-15" data-name="fullLogo" d="M358.3716,23.8243h6.8954v29.6494h10.0486v6.5765h-16.944V23.8243Z" style="fill: #fff;"/>
  <path id="fullLogo-16" data-name="fullLogo" d="M390.0039,23.8243h6.8465v36.2258h-6.8465V23.8243Z" style="fill: #fff;"/>
</svg>